<svg viewBox="130.28433264887065 97.32 240.05371663244355 247.90050000000002" version="1.1" xmlns="http://www.w3.org/2000/svg" style="max-height: 500px; max-width: 100%;" width="240.05371663244355" height="247.90050000000002" class="svg-preview">
<path transform="translate(265.55078125,101.03515625)" fill="#000000" d="M0 0 C0.83456223 0.31020081 1.66912445 0.62040161 2.52897644 0.94000244 C5.27548058 1.96318665 8.01870783 2.99483449 10.76171875 4.02734375 C12.68746941 4.74837271 14.61325113 5.46931875 16.5390625 6.19018555 C45.35075012 17.00004736 74.01145033 28.20534982 102.44921875 39.96484375 C102.44921875 40.62484375 102.44921875 41.28484375 102.44921875 41.96484375 C100.6596869 42.80275164 98.8675218 43.63503771 97.07421875 44.46484375 C95.57761719 45.1609375 95.57761719 45.1609375 94.05078125 45.87109375 C91.44921875 46.96484375 91.44921875 46.96484375 89.44921875 46.96484375 C89.47198515 50.57041691 89.54924085 54.17280565 89.63671875 57.77734375 C89.64251953 58.80150391 89.64832031 59.82566406 89.65429688 60.88085938 C89.73638556 63.66275369 89.86141724 66.24370075 90.44921875 68.96484375 C92.70446778 71.16076551 92.70446778 71.16076551 95.44921875 71.96484375 C98.14922394 74.29998338 99.2996107 75.9750127 99.8359375 79.5234375 C100.01344324 84.03453155 99.73986879 87.28666033 97.94921875 91.46484375 C94.72122281 94.69283969 91.97353513 96.26389333 87.44921875 96.96484375 C82.50529211 96.76708668 79.29895608 95.65525533 75.44921875 92.52734375 C71.94404543 88.03634044 71.77229594 83.46484158 72.44921875 77.96484375 C74.66796283 73.52735559 76.96242788 71.09016574 81.44921875 68.96484375 C82.10921875 68.96484375 82.76921875 68.96484375 83.44921875 68.96484375 C83.33791077 65.79754363 83.20763615 62.63128349 83.07421875 59.46484375 C83.0278125 58.13453125 83.0278125 58.13453125 82.98046875 56.77734375 C82.86521601 54.16494826 82.66904209 51.57030751 82.44921875 48.96484375 C82.42827148 48.22878906 82.40732422 47.49273437 82.38574219 46.734375 C82.12605667 44.37359753 81.72969472 42.97359043 80.44921875 40.96484375 C76.80976288 38.21100644 72.66703024 36.62412018 68.44921875 34.96484375 C67.66019165 34.65021179 66.87116455 34.33557983 66.05822754 34.01141357 C59.42975743 31.38622885 52.75554113 28.88916009 46.07421875 26.40234375 C44.07921212 25.65356727 42.08441893 24.90422188 40.08984375 24.15429688 C35.3814466 22.38679278 30.66804987 20.6333062 25.95059204 18.89013672 C24.36004149 18.30176982 22.77024989 17.71134401 21.18148804 17.11816406 C19.23788714 16.39286321 17.29094646 15.67652935 15.34375 14.9609375 C13.78684448 14.38557251 13.78684448 14.38557251 12.19848633 13.79858398 C6.76740205 12.1515586 2.03784177 12.7378976 -3.48828125 13.52734375 C-6.55078125 13.96484375 -6.55078125 13.96484375 -8.55078125 12.96484375 C-14.11369349 12.39575233 -14.11369349 12.39575233 -18.98828125 14.58984375 C-20.92309257 17.53075695 -21.47887318 19.44134831 -21.55078125 22.96484375 C-20.34276663 25.76235129 -19.2193964 27.42004622 -16.86328125 29.33984375 C-13.27776647 30.3089018 -10.087969 30.09295918 -6.55078125 28.96484375 C-3.44663793 26.0240764 -1.92824846 22.98245646 -0.55078125 18.96484375 C7.07846571 17.53533108 11.92545716 18.65490864 19.07421875 21.46484375 C20.10949707 21.85486572 21.14477539 22.2448877 22.21142578 22.64672852 C25.24678978 23.79580266 28.27430829 24.96367281 31.30053711 26.13653564 C34.52436079 27.37930667 37.7558647 28.60163785 40.98684692 29.82565308 C45.43502901 31.51161609 49.87992073 33.20617279 54.32421875 34.90234375 C55.20072083 35.2365332 56.0772229 35.57072266 56.98028564 35.91503906 C59.48982298 36.87398853 61.99718825 37.83839573 64.50390625 38.8046875 C65.26221741 39.09395615 66.02052856 39.38322479 66.80181885 39.68125916 C69.93791943 40.89584348 72.63894487 42.09132783 75.44921875 43.96484375 C74.44921875 46.96484375 74.44921875 46.96484375 72.77827454 47.89456177 C72.04876083 48.15639252 71.31924713 48.41822327 70.56762695 48.68798828 C69.73351288 48.99386368 68.8993988 49.29973907 68.04000854 49.61488342 C67.11930573 49.93919846 66.19860291 50.26351349 65.25 50.59765625 C64.28772491 50.94722885 63.32544983 51.29680145 62.33401489 51.65696716 C59.14705961 52.8121254 55.95454962 53.95103674 52.76171875 55.08984375 C50.55500002 55.88547373 48.34870529 56.68228057 46.14282227 57.48022461 C42.72107353 58.71798897 39.29907619 59.95499338 35.87553406 61.18778992 C27.97513915 64.03574848 20.10021912 66.94610073 12.23828125 69.8984375 C10.14023009 70.68411404 8.04216715 71.46975915 5.9440918 72.25537109 C2.93412584 73.3829097 -0.07483835 74.51279172 -3.0809021 75.6506958 C-5.86094452 76.70210274 -8.64481735 77.74271093 -11.4296875 78.78125 C-12.23912811 79.09082138 -13.04856873 79.40039276 -13.88253784 79.71934509 C-22.92499874 83.06713097 -28.80259102 83.46651439 -37.8984375 80.08203125 C-38.8042305 79.75997711 -39.7100235 79.43792297 -40.64326477 79.10610962 C-43.63982241 78.03466683 -46.62640053 76.93794687 -49.61328125 75.83984375 C-51.71207881 75.08178594 -53.81120667 74.32464207 -55.91064453 73.56835938 C-77.71262992 65.67544529 -99.37398682 57.38939622 -121.01171875 49.05859375 C-122.0521785 48.65830963 -123.09263824 48.25802551 -124.16462708 47.84561157 C-125.1123851 47.47954803 -126.06014313 47.1134845 -127.03662109 46.73632812 C-128.27839615 46.25697815 -128.27839615 46.25697815 -129.54525757 45.76794434 C-131.55078125 44.96484375 -131.55078125 44.96484375 -133.55078125 43.96484375 C-133.55078125 43.30484375 -133.55078125 42.64484375 -133.55078125 41.96484375 C-109.79299276 31.73424761 -85.58622424 22.71423475 -61.36282349 13.65742493 C-54.26158187 10.99716694 -47.18256997 8.28519445 -40.1171875 5.53125 C-37.57600195 4.54648563 -35.03448899 3.56257045 -32.49291992 2.57879639 C-30.92193931 1.96717449 -29.35287316 1.35060938 -27.78588867 0.7288208 C-25.65102716 -0.11798438 -23.51015919 -0.94741891 -21.3671875 -1.7734375 C-20.18584229 -2.23790283 -19.00449707 -2.70236816 -17.78735352 -3.1809082 C-11.42074129 -4.86128658 -5.92911819 -2.23655315 0 0 Z"></path>
<path transform="translate(183,173)" fill="#000000" d="M0 0 C0.73456972 9.39782852 1.17305229 16.00741606 -5.0625 23.61328125 C-18.30214868 39.92260654 -19.68117724 63.00127155 -18 83 C-17.26562472 88.55183419 -15.85457163 93.70991042 -14 99 C-13.63777344 100.05960937 -13.27554688 101.11921875 -12.90234375 102.2109375 C-4.91959371 123.26374946 12.34390149 140.45087965 32.6796875 149.734375 C54.83712334 159.31354343 78.66199668 159.99894832 101.32421875 151.796875 C106.86781733 149.5989112 112.05939028 147.00502451 117.16015625 143.91796875 C119 143 119 143 122 143 C123.60546875 144.96875 123.60546875 144.96875 125.1875 147.5 C125.71730469 148.3353125 126.24710938 149.170625 126.79296875 150.03125 C127.19128906 150.6809375 127.58960938 151.330625 128 152 C126.77408521 155.77850449 124.59084881 157.10935471 121.15014648 158.89233398 C120.48184814 159.21661377 119.8135498 159.54089355 119.125 159.875 C118.42898682 160.21797119 117.73297363 160.56094238 117.01586914 160.91430664 C90.54348872 173.42508676 60.55226042 174.78829216 32.92724609 165.28710938 C8.80645294 156.50271217 -11.55014278 137.41962832 -22.8203125 114.421875 C-34.04588289 89.26305894 -35.75247215 61.0418771 -26.375 35 C-22.40468204 24.72128794 -12.81357214 0 0 0 Z"></path>
<path transform="translate(313,168)" fill="#000000" d="M0 0 C0.495 1.98 0.495 1.98 1 4 C-4.93279358 6.69672436 -10.92012149 9.24903299 -16.9375 11.75 C-18.07433228 12.22675171 -18.07433228 12.22675171 -19.23413086 12.71313477 C-24.766588 15 -24.766588 15 -27 15 C-27 15.99 -27 16.98 -27 18 C-26.2886792 17.72736328 -25.5773584 17.45472656 -24.84448242 17.17382812 C-21.62742579 15.94407847 -18.40752388 14.72195778 -15.1875 13.5 C-13.50817383 12.85611328 -13.50817383 12.85611328 -11.79492188 12.19921875 C-10.72177734 11.79316406 -9.64863281 11.38710937 -8.54296875 10.96875 C-7.55321045 10.59169922 -6.56345215 10.21464844 -5.54370117 9.82617188 C-3 9 -3 9 0 9 C0 10.98 0 12.96 0 15 C-1.08539063 15.39832031 -2.17078125 15.79664063 -3.2890625 16.20703125 C-4.73444107 16.74200903 -6.17974988 17.27717531 -7.625 17.8125 C-8.33785156 18.07353516 -9.05070312 18.33457031 -9.78515625 18.60351562 C-17.51572002 20.92433412 -17.51572002 20.92433412 -23 26 C-21.13794922 25.36771484 -21.13794922 25.36771484 -19.23828125 24.72265625 C-17.59640822 24.16911049 -15.95447812 23.61573396 -14.3125 23.0625 C-13.08756836 22.64581055 -13.08756836 22.64581055 -11.83789062 22.22070312 C-7.9154656 20.90264127 -4.09869486 19.65946414 0 19 C0.5 21.1875 0.5 21.1875 0 24 C-5.0416307 28.33160104 -11.21455725 30.34478758 -17.5 32.125 C-18.28375 32.36347656 -19.0675 32.60195312 -19.875 32.84765625 C-33.35400976 36.79325246 -46.37895717 38.53605237 -60.375 38.375 C-61.45151321 38.36851944 -61.45151321 38.36851944 -62.54977417 38.36190796 C-73.57151331 38.28432348 -84.29095849 37.78611382 -95 35 C-95.70914551 34.81775879 -96.41829102 34.63551758 -97.14892578 34.44775391 C-116.16134971 29.39381843 -116.16134971 29.39381843 -120.18359375 23.16796875 C-121.14801344 20.60694996 -121.23232982 18.60554346 -121.1875 15.875 C-121.17783203 14.57175781 -121.17783203 14.57175781 -121.16796875 13.2421875 C-121 11 -121 11 -120 9 C-114.7579935 9.63952271 -110.25863103 11.28176483 -105.3828125 13.1953125 C-103.7073025 13.83534595 -102.03151234 14.47464639 -100.35546875 15.11328125 C-97.73692346 16.11739247 -95.12078844 17.12664862 -92.50927734 18.14892578 C-89.97294294 19.13870316 -87.42890181 20.10595551 -84.8828125 21.0703125 C-84.1117215 21.37856964 -83.34063049 21.68682678 -82.5461731 22.00442505 C-75.26216323 24.7293563 -69.7033103 23.87264538 -62.39453125 21.171875 C-60.82143188 20.59928955 -60.82143188 20.59928955 -59.21655273 20.01513672 C-57.53154663 19.38889404 -57.53154663 19.38889404 -55.8125 18.75 C-53.98741806 18.08563496 -52.16231664 17.42132187 -50.33662415 16.75863647 C-49.02808031 16.28337363 -47.71989122 15.80713312 -46.41203308 15.32998657 C-38.43963583 12.42256459 -30.4431399 9.58360554 -22.44076538 6.7598877 C-19.95944354 5.8827569 -17.48032559 4.99958475 -15.0012207 4.11621094 C-13.46838134 3.57453116 -11.9354278 3.03317436 -10.40234375 2.4921875 C-9.6973172 2.23954132 -8.99229065 1.98689514 -8.26589966 1.72659302 C-5.37066431 0.71133294 -3.09337767 0 0 0 Z"></path>
<path transform="translate(187,251)" fill="#000000" d="M0 0 C8.91 0 17.82 0 27 0 C27.556875 3.34125 28.11375 6.6825 28.6875 10.125 C31.9945536 28.72529981 39.60238658 44.73489985 49 61 C33.17004314 58.45134863 19.39122231 43.02371244 10.2890625 30.6796875 C4.22663105 21.3552371 1.36746831 10.93974646 0 0 Z"></path>
<path transform="translate(293,251)" fill="#000000" d="M0 0 C8.25 0 16.5 0 25 0 C25 16.43205509 15.46435447 33.46720162 4 45 C-13.82672935 61 -13.82672935 61 -23 61 C-21.54081932 57.87207546 -19.764933 54.9965869 -17.9284668 52.078125 C-7.78736528 35.8086636 -3.14588685 18.87532109 0 0 Z"></path>
<path transform="translate(223,251)" fill="#000000" d="M0 0 C8.58 0 17.16 0 26 0 C26 20.13 26 40.26 26 61 C15.43977264 55.71988632 9.22612746 39.56768969 5.453125 28.75390625 C2.38385588 19.25974992 0.9826704 9.91603771 0 0 Z"></path>
<path transform="translate(258,251)" fill="#000000" d="M0 0 C8.25 0 16.5 0 25 0 C25 22.30057435 16.08937313 43.80337455 2 61 C1.34 61 0.68 61 0 61 C0 40.87 0 20.74 0 0 Z"></path>
<path transform="translate(196,205)" fill="#000000" d="M0 0 C5.26621606 0.59578777 9.94408019 1.81308796 14.9375 3.5625 C15.62134766 3.79646484 16.30519531 4.03042969 17.00976562 4.27148438 C18.67508501 4.84211829 20.33782493 5.42027098 22 6 C21.61533024 10.84886358 21.17753363 15.58479036 20 20.3125 C18.76206344 26.11532761 18.45507139 32.08407191 18 38 C9.09 38 0.18 38 -9 38 C-9 24.03854623 -7.96207031 11.74731685 0 0 Z"></path>
<path transform="translate(310,204)" fill="#000000" d="M0 0 C6.83279743 12.20142398 9.22139488 25.17511993 9 39 C4.85418113 39.02886751 0.70838784 39.04675327 -3.4375 39.0625 C-4.62150391 39.07087891 -5.80550781 39.07925781 -7.02539062 39.08789062 C-8.15009766 39.09111328 -9.27480469 39.09433594 -10.43359375 39.09765625 C-11.99678345 39.10551147 -11.99678345 39.10551147 -13.59155273 39.11352539 C-16 39 -16 39 -17 38 C-17.27304265 36.57301155 -17.4907923 35.13533886 -17.68359375 33.6953125 C-17.80565186 32.80610107 -17.92770996 31.91688965 -18.0534668 31.00073242 C-18.24356323 29.57724487 -18.24356323 29.57724487 -18.4375 28.125 C-19.4577562 20.71264143 -20.56753572 13.34560916 -22 6 C-19.08666921 4.99009308 -16.16884681 3.99384048 -13.25 3 C-12.0125 2.57074219 -12.0125 2.57074219 -10.75 2.1328125 C-9.95078125 1.86210937 -9.1515625 1.59140625 -8.328125 1.3125 C-7.5949707 1.06113281 -6.86181641 0.80976563 -6.10644531 0.55078125 C-4 0 -4 0 0 0 Z"></path>
<path transform="translate(366,364)" fill="#000000" d="M0 0 C9 0 9 0 11.30688477 1.92773438 C12.1159729 3.24741211 12.1159729 3.24741211 12.94140625 4.59375 C13.54404297 5.54121094 14.14667969 6.48867188 14.76757812 7.46484375 C15.35990234 8.46644531 15.95222656 9.46804688 16.5625 10.5 C17.18962891 11.50160156 17.81675781 12.50320313 18.46289062 13.53515625 C20.00404663 16.00571168 21.50593623 18.50068421 23 21 C23.33 14.07 23.66 7.14 24 0 C26.64 0 29.28 0 32 0 C33 1 33 1 33.11352539 4.51000977 C33.11336626 6.07048422 33.10767142 7.63096393 33.09765625 9.19140625 C33.0962413 10.01124496 33.09482635 10.83108368 33.09336853 11.67576599 C33.08775289 14.30471382 33.07519779 16.93357773 33.0625 19.5625 C33.05748701 21.34049357 33.05292376 23.11848846 33.04882812 24.89648438 C33.03777839 29.26435545 33.02050331 33.63216348 33 38 C31.55082251 38.05652183 30.10101287 38.0970054 28.65112305 38.13061523 C27.84386276 38.15486069 27.03660248 38.17910614 26.20487976 38.2040863 C24 38 24 38 21.58203125 35.91015625 C20.99808594 34.97042969 20.41414063 34.03070313 19.8125 33.0625 C19.16925781 32.06734375 18.52601563 31.0721875 17.86328125 30.046875 C17.24839844 29.04140625 16.63351562 28.0359375 16 27 C14.83893496 25.2670671 13.67286751 23.53746674 12.5 21.8125 C11.675 20.554375 10.85 19.29625 10 18 C9.67 24.6 9.34 31.2 9 38 C6.03 38 3.06 38 0 38 C0 25.46 0 12.92 0 0 Z"></path>
<path transform="translate(354.3125,366.796875)" fill="#000000" d="M0 0 C4.10817127 2.92897396 6.08684561 6.53057644 7.6875 11.203125 C8.38416765 17.41884804 8.33484724 22.92076003 4.6875 28.203125 C0.21434456 33.54606066 -4.30174738 35.91638665 -11.25 36.578125 C-17.50916558 36.27545742 -22.41536363 34.57753189 -26.6875 29.890625 C-30.72247215 24.66051164 -31.88010881 19.7873872 -31.3125 13.203125 C-29.91032054 6.63837569 -26.80504198 2.93854505 -21.3125 -0.796875 C-14.73855611 -4.7057065 -6.41957675 -3.67572539 0 0 Z M-19.3125 8.203125 C-21.67381066 11.58767028 -22.57354673 14.19636708 -22.3125 18.265625 C-21.54651738 22.51927315 -19.86413779 24.65521093 -16.3125 27.203125 C-12.39952676 28.32111735 -10.31958715 28.63800354 -6.5625 27.015625 C-2.56194735 23.85203982 -2.56194735 23.85203982 -1.02734375 19.12109375 C-0.84614039 14.37041431 -1.12314108 10.9620123 -4.3125 7.203125 C-9.25251418 3.62587335 -14.75017473 4.50394235 -19.3125 8.203125 Z"></path>
<path transform="translate(320,192)" fill="#000000" d="M0 0 C0.99 0 1.98 0 3 0 C15.03559862 22.19822225 20.72602285 47.86694229 14.0234375 72.86328125 C13.68570313 73.89839844 13.34796875 74.93351562 13 76 C12.43152344 77.78470703 12.43152344 77.78470703 11.8515625 79.60546875 C5.44137084 98.11817936 -7.14934836 113.15039291 -24 123 C-26.32434311 123.83350574 -28.59191382 124.42534307 -31 125 C-29.48691093 121.15709765 -27.25136998 119.40835645 -24 116.9375 C-8.17657623 104.25807677 5.92925026 84.76410726 8.78466797 64.18017578 C10.70243106 44.7633681 8.75332531 27.68891037 0.07421875 10.18359375 C-1.20793482 6.38375681 -0.83642959 3.87888107 0 0 Z"></path>
<path transform="translate(136.5,363.8125)" fill="#000000" d="M0 0 C8.8909093 0.09928934 15.26929131 0.44269068 22.08984375 6.45703125 C26.70525075 12.12081325 26.18183114 19.27543679 25.5 26.1875 C23.8580485 31.58914727 20.3605306 34.49869584 15.5 37.1875 C12.61734851 38.14838383 10.82337729 38.30420941 7.83203125 38.28515625 C6.93935547 38.28193359 6.04667969 38.27871094 5.12695312 38.27539062 C3.73379883 38.26282227 3.73379883 38.26282227 2.3125 38.25 C0.90194336 38.24323242 0.90194336 38.24323242 -0.53710938 38.23632812 C-2.85813712 38.22454626 -5.17903644 38.20809558 -7.5 38.1875 C-7.52464928 32.93644558 -7.54283568 27.68542455 -7.55493164 22.43432617 C-7.55997218 20.64655979 -7.56680454 18.85879755 -7.57543945 17.07104492 C-7.5875173 14.50698832 -7.59323094 11.94298603 -7.59765625 9.37890625 C-7.60281754 8.5747377 -7.60797882 7.77056915 -7.61329651 6.94203186 C-7.61349215 5.02348285 -7.56201983 3.10504632 -7.5 1.1875 C-5.6206684 -0.6918316 -2.50683616 0.01339122 0 0 Z M1.5 8.1875 C1.5 15.7775 1.5 23.3675 1.5 31.1875 C8.6679527 31.23349761 8.6679527 31.23349761 14.5 28.1875 C17.46266844 23.74349734 17.26945894 19.39848923 16.5 14.1875 C14.2984026 11.29066132 12.71405538 9.79452769 9.5 8.1875 C6.86 8.1875 4.22 8.1875 1.5 8.1875 Z"></path>
<path transform="translate(183,194)" fill="#000000" d="M0 0 C0.99 0 1.98 0 3 0 C4.51367597 5.43241488 3.15403162 8.77704556 0.75 13.625 C-8.86861908 34.23971941 -9.50019647 56.25296323 -1.75 77.6875 C2.41820171 87.81027559 7.65172705 96.17156481 15.27734375 104.0390625 C17 106 17 106 17 108 C17.58136719 108.26167969 18.16273438 108.52335937 18.76171875 108.79296875 C21.1267634 110.06835932 22.83683549 111.49778575 24.8125 113.3125 C28.37732631 116.50947369 32.05584662 119.28839455 36 122 C34.4140625 122.7109375 34.4140625 122.7109375 32 123 C29.6265316 121.97767482 27.57689976 120.93928221 25.375 119.625 C24.75616943 119.26212891 24.13733887 118.89925781 23.49975586 118.52539062 C4.66041777 107.1149982 -6.8568976 89.082066 -12.04296875 67.9765625 C-16.89755194 46.03266178 -13.69660269 22.53525778 -2.3125 3 C-1.1678125 1.515 -1.1678125 1.515 0 0 Z"></path>
<path transform="translate(168.84765625,363.90234375)" fill="#000000" d="M0 0 C2.05078125 0.03255208 4.1015625 0.06510417 6.15234375 0.09765625 C6.1663623 1.24766113 6.1663623 1.24766113 6.18066406 2.42089844 C6.23437148 5.89713728 6.31801951 9.37203099 6.40234375 12.84765625 C6.41652344 14.05421875 6.43070313 15.26078125 6.4453125 16.50390625 C6.47753906 17.6640625 6.50976562 18.82421875 6.54296875 20.01953125 C6.56391602 21.0878418 6.58486328 22.15615234 6.60644531 23.25683594 C7.2778362 26.75071086 8.31714532 27.99651461 11.15234375 30.09765625 C14.35189329 29.95416278 14.35189329 29.95416278 17.15234375 29.09765625 C19.55324308 23.48614252 19.3497762 18.32557289 19.21484375 12.34765625 C19.18049324 10.45710612 19.15033368 8.56647371 19.125 6.67578125 C19.09805054 5.42909668 19.09805054 5.42909668 19.07055664 4.15722656 C19.15234375 2.09765625 19.15234375 2.09765625 20.15234375 0.09765625 C22.79234375 0.09765625 25.43234375 0.09765625 28.15234375 0.09765625 C28.22678265 4.13606195 28.28108104 8.17419918 28.31713867 12.21313477 C28.33217807 13.58560142 28.35261508 14.95802039 28.37866211 16.33032227 C28.41525596 18.30854281 28.43051073 20.28712139 28.4453125 22.265625 C28.46102295 23.45438232 28.4767334 24.64313965 28.49291992 25.86791992 C27.98935642 30.64329025 26.18957099 33.14021572 22.71484375 36.34765625 C18.29047826 39.36917414 14.48791103 39.54228686 9.15234375 39.09765625 C4.60025236 37.48266794 0.43983072 35.53807214 -1.84765625 31.09765625 C-2.75852618 27.41114331 -2.97625571 23.96631104 -2.98046875 20.17578125 C-2.98175781 19.06847656 -2.98304688 17.96117187 -2.984375 16.8203125 C-2.98050781 15.67433594 -2.97664062 14.52835937 -2.97265625 13.34765625 C-2.97652344 12.18621094 -2.98039063 11.02476562 -2.984375 9.828125 C-2.98308594 8.72597656 -2.98179687 7.62382812 -2.98046875 6.48828125 C-2.97934082 5.47797852 -2.97821289 4.46767578 -2.97705078 3.42675781 C-2.79488207 0.14772104 -2.79488207 0.14772104 0 0 Z"></path>
<path transform="translate(254,364)" fill="#000000" d="M0 0 C1.43489809 -0.13536774 2.87347107 -0.23217143 4.3125 -0.3125 C5.11300781 -0.37050781 5.91351563 -0.42851562 6.73828125 -0.48828125 C9 0 9 0 10.47265625 2.08056641 C12.19024036 5.36363399 13.48301603 8.70931078 14.69921875 12.19921875 C14.9391304 12.87547806 15.17904205 13.55173737 15.42622375 14.24848938 C15.92875973 15.66872917 16.42865278 17.08990664 16.92602539 18.51196289 C17.68953169 20.69330456 18.46226631 22.87121264 19.23632812 25.04882812 C19.72450329 26.43209947 20.21215223 27.81555665 20.69921875 29.19921875 C20.93041916 29.85129807 21.16161957 30.50337738 21.39982605 31.17521667 C23 35.7683929 23 35.7683929 23 38 C20.03 38 17.06 38 14 38 C12 34 12 34 12 31 C7.38 31 2.76 31 -2 31 C-2.66 33.31 -3.32 35.62 -4 38 C-6.97 38 -9.94 38 -13 38 C-12.37453682 33.37263259 -11.15184095 29.29654052 -9.53125 24.921875 C-9.29088013 24.26922668 -9.05051025 23.61657837 -8.80285645 22.94415283 C-8.04019413 20.87756202 -7.27008093 18.81383618 -6.5 16.75 C-5.98261076 15.34912894 -5.46567919 13.94808875 -4.94921875 12.546875 C-1.18910274 2.37820547 -1.18910274 2.37820547 0 0 Z M4 13 C3.49384702 14.26839526 2.99530901 15.53983102 2.5 16.8125 C2.2215625 17.52019531 1.943125 18.22789062 1.65625 18.95703125 C0.8470838 21.11841216 0.8470838 21.11841216 1 24 C3.64 24 6.28 24 9 24 C8.55123384 22.35153231 8.09069512 20.70626545 7.625 19.0625 C7.24214844 17.68771484 7.24214844 17.68771484 6.8515625 16.28515625 C6.23339896 13.83254913 6.23339896 13.83254913 4 13 Z"></path>
<path transform="translate(227,213)" fill="#000000" d="M0 0 C3.10451549 0.13894148 6.20850835 0.287343 9.3125 0.4375 C10.19357422 0.47681641 11.07464844 0.51613281 11.98242188 0.55664062 C12.82998047 0.59853516 13.67753906 0.64042969 14.55078125 0.68359375 C15.33106689 0.72025146 16.11135254 0.75690918 16.9152832 0.79467773 C19 1 19 1 22 2 C22 11.24 22 20.48 22 30 C13.42 30 4.84 30 -4 30 C-4 19.86968265 -4 19.86968265 -3.37890625 16.2890625 C-3.24806641 15.51949219 -3.11722656 14.74992188 -2.98242188 13.95703125 C-2.84384766 13.18746094 -2.70527344 12.41789063 -2.5625 11.625 C-2.42779297 10.83222656 -2.29308594 10.03945312 -2.15429688 9.22265625 C-1.60584439 6.06035947 -1.01632604 3.04897813 0 0 Z"></path>
<path transform="translate(228.8125,365.1875)" fill="#000000" d="M0 0 C4.34181671 2.46887617 7.57565181 4.69456394 9 9.625 C9.061875 10.346875 9.12375 11.06875 9.1875 11.8125 C5.8875 11.8125 2.5875 11.8125 -0.8125 11.8125 C-1.1425 10.8225 -1.4725 9.8325 -1.8125 8.8125 C-7.86881435 7.67447958 -7.86881435 7.67447958 -13.75 9 C-17.11959248 11.96115703 -17.71738555 13.76624105 -18.125 18.25 C-17.78999464 22.06906107 -17.18908622 23.84176723 -14.8125 26.8125 C-12.15996033 28.89663831 -10.79889383 28.81200523 -7.375 28.6875 C-3.75954423 28.07274066 -3.75954423 28.07274066 -1.3125 25.75 C1.9662552 23.20896472 4.14535071 23.49546868 8.1875 23.8125 C8.6825 25.2975 8.6825 25.2975 9.1875 26.8125 C6.37987043 32.0908436 2.85815713 35.39160047 -2.75 37.5625 C-9.78774294 38.41555975 -15.77651972 37.75261808 -21.58203125 33.5234375 C-26.36015343 29.17546257 -27.60423848 24.72816132 -28.0625 18.3125 C-27.68069385 12.96721391 -26.99540829 9.18218328 -23.4375 5.0625 C-16.03832073 -1.27965366 -9.53040452 -2.96848665 0 0 Z"></path>
<path transform="translate(279,213)" fill="#000000" d="M0 0 C3.73932401 9.68824858 5 19.64024472 5 30 C-3.58 30 -12.16 30 -21 30 C-21 20.76 -21 11.52 -21 2 C-6.375 -0.25 -6.375 -0.25 0 0 Z"></path>
<path transform="translate(106.65625,363.8671875)" fill="#000000" d="M0 0 C1.40958984 -0.00193359 1.40958984 -0.00193359 2.84765625 -0.00390625 C3.83636719 -0.00003906 4.82507813 0.00382812 5.84375 0.0078125 C7.32681641 0.00201172 7.32681641 0.00201172 8.83984375 -0.00390625 C9.77957031 -0.00261719 10.71929687 -0.00132812 11.6875 0 C12.55568359 0.00112793 13.42386719 0.00225586 14.31835938 0.00341797 C16.34375 0.1328125 16.34375 0.1328125 17.34375 1.1328125 C17.34375 3.4428125 17.34375 5.7528125 17.34375 8.1328125 C12.72375 8.1328125 8.10375 8.1328125 3.34375 8.1328125 C3.34375 10.7728125 3.34375 13.4128125 3.34375 16.1328125 C9.28375 15.6378125 9.28375 15.6378125 15.34375 15.1328125 C15.34375 17.7728125 15.34375 20.4128125 15.34375 23.1328125 C11.38375 23.1328125 7.42375 23.1328125 3.34375 23.1328125 C3.34375 25.7728125 3.34375 28.4128125 3.34375 31.1328125 C7.96375 31.1328125 12.58375 31.1328125 17.34375 31.1328125 C17.34375 33.4428125 17.34375 35.7528125 17.34375 38.1328125 C9.75375 38.1328125 2.16375 38.1328125 -5.65625 38.1328125 C-5.67915839 32.88170054 -5.69908563 27.63076072 -5.71118164 22.37963867 C-5.71622218 20.59187229 -5.72305454 18.80411005 -5.73168945 17.01635742 C-5.7437673 14.45230082 -5.74948094 11.88829853 -5.75390625 9.32421875 C-5.75906754 8.5200502 -5.76422882 7.71588165 -5.76954651 6.88734436 C-5.76974215 4.96879535 -5.71826983 3.05035882 -5.65625 1.1328125 C-4.03424485 -0.48919265 -2.23601969 0.002905 0 0 Z"></path>
<path transform="translate(279,364)" fill="#000000" d="M0 0 C4.47915328 -0.02886338 8.95828291 -0.04675187 13.4375 -0.0625 C14.71689453 -0.07087891 15.99628906 -0.07925781 17.31445312 -0.08789062 C19.13686523 -0.09272461 19.13686523 -0.09272461 20.99609375 -0.09765625 C22.12200928 -0.10289307 23.2479248 -0.10812988 24.40795898 -0.11352539 C27 0 27 0 28 1 C28.04092937 3.33297433 28.04241723 5.66705225 28 8 C24.7 8 21.4 8 18 8 C18 17.9 18 27.8 18 38 C15.03 38 12.06 38 9 38 C9 28.1 9 18.2 9 8 C6.03 8 3.06 8 0 8 C-1.43088528 5.13822943 -0.59991697 3.06624227 0 0 Z"></path>
<path transform="translate(311,364)" fill="#000000" d="M0 0 C2.64 0 5.28 0 8 0 C8 12.54 8 25.08 8 38 C5.36 38 2.72 38 0 38 C0 25.46 0 12.92 0 0 Z"></path>
<path transform="translate(342,150)" fill="#000000" d="M0 0 C0 1.65 0 3.3 0 5 C-4.10060964 6.61336203 -8.20609276 8.21395815 -12.3125 9.8125 C-14.03436523 10.49022461 -14.03436523 10.49022461 -15.79101562 11.18164062 C-22.77600529 13.89252896 -29.72293177 16.20865067 -37 18 C-37.33 17.34 -37.66 16.68 -38 16 C-34.93799973 12.51047517 -32.22961393 11.04654567 -27.87890625 9.4921875 C-26.69619141 9.06292969 -25.51347656 8.63367188 -24.29492188 8.19140625 C-23.06322266 7.75699219 -21.83152344 7.32257813 -20.5625 6.875 C-18.12620097 5.99767657 -15.68999929 5.12008276 -13.25390625 4.2421875 C-12.17439697 3.8591748 -11.0948877 3.47616211 -9.98266602 3.08154297 C-8.05140765 2.38125038 -6.13339939 1.64277299 -4.23413086 0.85986328 C-2 0 -2 0 0 0 Z"></path>
<path transform="translate(258,251)" fill="#000000" d="M0 0 C8.25 0 16.5 0 25 0 C25 0.33 25 0.66 25 1 C17.08 1 9.16 1 1 1 C1 19.48 1 37.96 1 57 C1.66 57 2.32 57 3 57 C2.67 58.32 2.34 59.64 2 61 C1.34 61 0.68 61 0 61 C0 40.87 0 20.74 0 0 Z"></path>
<path transform="translate(167,364)" fill="#000000" d="M0 0 C2.64 0 5.28 0 8 0 C8 8.25 8 16.5 8 25 C7.67 25 7.34 25 7 25 C7 17.41 7 9.82 7 2 C5.02 2 3.04 2 1 2 C1 10.58 1 19.16 1 28 C-1 26 -1 26 -1.24291992 23.49389648 C-1.23881104 22.46337158 -1.23470215 21.43284668 -1.23046875 20.37109375 C-1.22853516 19.25412109 -1.22660156 18.13714844 -1.22460938 16.98632812 C-1.21236328 15.81521484 -1.20011719 14.64410156 -1.1875 13.4375 C-1.18685547 12.26251953 -1.18621094 11.08753906 -1.18554688 9.87695312 C-1.14012141 1.14012141 -1.14012141 1.14012141 0 0 Z"></path>
<path transform="translate(342,150)" fill="#000000" d="M0 0 C0 1.65 0 3.3 0 5 C-1.6210103 5.69685498 -3.24696066 6.38222861 -4.875 7.0625 C-5.77992188 7.44535156 -6.68484375 7.82820312 -7.6171875 8.22265625 C-10 9 -10 9 -12 8 C-11.67 7.34 -11.34 6.68 -11 6 C-11.66 5.34 -12.32 4.68 -13 4 C-11.2097939 3.32942113 -9.41778511 2.6636531 -7.625 2 C-6.62726563 1.62875 -5.62953125 1.2575 -4.6015625 0.875 C-2 0 -2 0 0 0 Z"></path>
<path transform="translate(299,308)" fill="#000000" d="M0 0 C0 1.65 0 3.3 0 5 C-2.97 6.32 -5.94 7.64 -9 9 C-9 6 -9 6 -7.5390625 4.39453125 C-6.59160156 3.61142578 -6.59160156 3.61142578 -5.625 2.8125 C-4.68527344 2.01779297 -4.68527344 2.01779297 -3.7265625 1.20703125 C-2 0 -2 0 0 0 Z"></path>
<path transform="translate(311,161)" fill="#000000" d="M0 0 C0.66 0.33 1.32 0.66 2 1 C1.34 1.66 0.68 2.32 0 3 C0.66 3.66 1.32 4.32 2 5 C-0.64 5.66 -3.28 6.32 -6 7 C-6.33 6.34 -6.66 5.68 -7 5 C-4.63707344 2.47411298 -3.33537489 1.11179163 0 0 Z"></path>
<path transform="translate(332,155)" fill="#000000" d="M0 0 C-0.66 1.65 -1.32 3.3 -2 5 C-4.31 5 -6.62 5 -9 5 C-8.6875 3.0625 -8.6875 3.0625 -8 1 C-5.07175348 0.02391783 -3.04386724 -0.08226668 0 0 Z"></path>
<path transform="translate(337,153)" fill="#000000" d="M0 0 C-0.6875 2.4375 -0.6875 2.4375 -2 5 C-4.625 5.8125 -4.625 5.8125 -7 6 C-6.67 5.01 -6.34 4.02 -6 3 C-6.66 2.34 -7.32 1.68 -8 1 C-5.07175348 0.02391783 -3.04386724 -0.08226668 0 0 Z"></path>
<path transform="translate(315.6875,160.75)" fill="#000000" d="M0 0 C0.763125 0.0825 1.52625 0.165 2.3125 0.25 C1.6525 1.57 0.9925 2.89 0.3125 4.25 C-1.6675 4.25 -3.6475 4.25 -5.6875 4.25 C-3.34903846 0.31153846 -3.34903846 0.31153846 0 0 Z"></path>
<path transform="translate(210,312)" fill="#000000" d="M0 0 C4.31392226 0.4793247 6.16569547 1.7457985 9 5 C3.48387097 4.38709677 3.48387097 4.38709677 1.125 2.5 C0 1 0 1 0 0 Z"></path>
<path transform="translate(181,173)" fill="#000000" d="M0 0 C-1.29299694 2.88437779 -2.65941363 4.87219421 -5 7 C-5.99 6.67 -6.98 6.34 -8 6 C-7.0479279 4.99403703 -6.08812654 3.99538437 -5.125 3 C-4.59132812 2.443125 -4.05765625 1.88625 -3.5078125 1.3125 C-2 0 -2 0 0 0 Z"></path>
<path transform="translate(294,311)" fill="#000000" d="M0 0 C0.66 1.32 1.32 2.64 2 4 C-0.31 4.66 -2.62 5.32 -5 6 C-3.63016497 2.83884224 -3.0109362 2.0072908 0 0 Z"></path>
</svg>